<?xml version="1.0" encoding="utf-8"?>
<!-- Generator: Adobe Illustrator 24.1.0, SVG Export Plug-In . SVG Version: 6.00 Build 0)  -->
<svg version="1.1" id="Layer_1" xmlns="http://www.w3.org/2000/svg" xmlns:xlink="http://www.w3.org/1999/xlink" x="0px" y="0px"
	 viewBox="0 0 277.68 160.09" style="enable-background:new 0 0 277.68 160.09;" xml:space="preserve">
<style type="text/css">
	.st0{fill:#EE2B5B;}
	.st1{fill:#162B52;}
	.st2{fill:#055474;}
	.st3{fill:#0988A6;}
	.st4{fill:#58C7DD;}
	.st5{fill:#FFFFFF;}
</style>
<g>
	<g>
		<path class="st5" d="M122.52,100.27c0.82,0,1.63-0.05,2.43-0.13c2.2-6.29,3.41-13.05,3.41-20.09c0-0.9-0.03-1.79-0.07-2.68
			c-5.87,2.32-12.47,3.41-17.59,3.93C111.02,89.7,109.96,100.27,122.52,100.27z"/>
		<path class="st5" d="M126.1,64.51c0-1.07-0.36-2.02-1.07-2.86c-0.71-0.84-1.88-1.26-3.51-1.26c-3.2,0-5.71,1.27-7.51,3.81
			c-1.8,2.54-3.01,5.69-3.62,9.45c5.39-0.51,9.36-1.51,11.9-3.01C124.83,69.15,126.1,67.11,126.1,64.51z"/>
		<path class="st5" d="M99.29,104.91c-4.28-4.47-6.42-10.64-6.42-18.51c0-1.97,0.16-3.92,0.39-5.87c-2.13-0.21-4.25-0.47-6.37-0.8
			c-0.74,20.96-9.99,33.35-27.59,33.35c-9.05,0-13.83-3.3-16.77-8.08c-5.14,6-11.26,8.08-18.97,8.08c-2.76,0-5.28-0.28-7.55-0.82
			c10.74,17.16,29.81,28.58,51.55,28.58c22.04,0,41.34-11.73,52-29.29c-0.56,0.03-1.1,0.07-1.72,0.07
			C109.76,111.62,103.57,109.38,99.29,104.91z"/>
		<path class="st5" d="M21.99,93.83c0,5.51,0.73,8.32,4.77,8.32c4.16,0,6.61-2.94,6.61-7.71V48.83h20.44v39.16
			c0,5.87,0.12,14.16,4.77,14.16c6.49,0,8.08-10.03,8.08-20.07c0-8.93-1.84-24.81-3.92-33.25h20.07c1.93,6.72,3.52,15.47,4,23.44
			c0.43,0.17,0.82,0.3,0,0.06v0c0.45,0.14,0.89,0.28,1.35,0.4c1.25,0.33,2.52,0.59,3.79,0.81c0.68,0.12,1.35,0.22,2.03,0.32
			c0.18,0.03,0.35,0.05,0.53,0.07c0.48-1.87,1.04-3.74,1.74-5.59c2.12-5.58,8.91-19.11,22.78-20.65
			c-10.76-17.08-29.78-28.44-51.46-28.44c-22.16,0-41.54,11.86-52.16,29.57h6.58V93.83z"/>
	</g>
	<g>
		<path class="st5" d="M156.95,85.96c-0.99-0.67-2.29-1.21-3.91-1.64c-1.62-0.43-3.61-0.76-5.96-1v-1.84
			c0.48-0.17,1.12-0.3,1.92-0.38c0.8-0.08,1.59-0.13,2.38-0.13c1.19,0,2.28,0.05,3.25,0.15c0.97,0.1,1.88,0.27,2.74,0.51l1.18-7.06
			c-1.64-0.38-3.4-0.66-5.3-0.84c-1.89-0.19-3.81-0.28-5.76-0.28c-3.92,0-6.81,0.7-8.65,2.1c-1.84,1.4-2.76,3.58-2.76,6.55
			c0,1.43,0.2,2.64,0.61,3.61c0.41,0.97,1.09,1.78,2.05,2.43c0.95,0.65,2.25,1.17,3.89,1.56c1.64,0.39,3.7,0.71,6.19,0.95v2
			c-0.75,0.14-1.43,0.24-2.05,0.31c-0.61,0.07-1.14,0.1-1.59,0.1c-3.04,0-5.77-0.53-8.19-1.59l-1.28,7.37
			c1.5,0.55,3.25,0.97,5.25,1.28c2,0.31,3.98,0.46,5.96,0.46c3,0,5.45-0.31,7.34-0.92c1.89-0.61,3.29-1.57,4.2-2.87
			c0.9-1.3,1.36-2.95,1.36-4.96c0-1.33-0.23-2.47-0.69-3.43C158.67,87.43,157.94,86.62,156.95,85.96z"/>
		<path class="st5" d="M178.11,74.35c-0.06-0.03-0.12-0.06-0.18-0.08c-1.38-0.55-3.03-0.82-4.94-0.82c-1.91,0-3.56,0.26-4.94,0.79
			c-1.38,0.53-2.53,1.35-3.43,2.46c-0.9,1.11-1.57,2.52-2,4.22c-0.43,1.71-0.64,3.74-0.64,6.09c0,2.35,0.21,4.38,0.64,6.09
			c0.43,1.71,1.09,3.11,2,4.22c0.9,1.11,2.05,1.93,3.43,2.46c1.38,0.53,3.03,0.79,4.94,0.79c1.91,0,3.56-0.27,4.94-0.82
			c1.38-0.55,2.52-1.37,3.4-2.48c0,0,0.01-0.01,0.01-0.01l1.89,2.55h5.12V65.77l-10.23,0.77V74.35z M177.7,92.58
			c-0.27,0.2-0.8,0.31-1.59,0.31h-3.12V82.55c0-0.55,0.14-0.92,0.43-1.13c0.29-0.2,0.81-0.31,1.56-0.31h3.12v10.34
			C178.11,92,177.97,92.38,177.7,92.58z"/>
		<path class="st5" d="M215.66,76.69c-1.11-1.11-2.52-1.93-4.22-2.46c-1.71-0.53-3.74-0.79-6.09-0.79c-2.32,0-4.33,0.26-6.04,0.79
			c-1.71,0.53-3.11,1.35-4.22,2.46c-1.11,1.11-1.94,2.52-2.48,4.22c-0.55,1.71-0.82,3.74-0.82,6.09c0,2.32,0.27,4.33,0.82,6.04
			c0.55,1.71,1.37,3.11,2.48,4.22c1.11,1.11,2.52,1.94,4.22,2.48c1.71,0.55,3.72,0.82,6.04,0.82c2.35,0,4.38-0.27,6.09-0.82
			c1.71-0.55,3.11-1.37,4.22-2.48c1.11-1.11,1.93-2.52,2.46-4.22c0.53-1.71,0.79-3.72,0.79-6.04c0-2.35-0.26-4.38-0.79-6.09
			C217.58,79.21,216.77,77.8,215.66,76.69z M207.91,91.46c0,0.55-0.14,0.92-0.41,1.13c-0.27,0.2-0.8,0.31-1.59,0.31h-3.12V82.55
			c0-0.55,0.14-0.92,0.43-1.13c0.29-0.2,0.81-0.31,1.56-0.31h3.12V91.46z"/>
		<path class="st5" d="M260.25,75.01c-1.35-1.04-3.23-1.56-5.65-1.56c-1.67,0-3.34,0.28-4.99,0.84c-1.15,0.39-2.25,0.92-3.32,1.56
			c-0.25-0.3-0.54-0.59-0.87-0.84c-1.35-1.04-3.23-1.56-5.66-1.56c-1.67,0-3.33,0.28-4.99,0.84c-1.66,0.56-3.23,1.39-4.73,2.48
			l-2.56-2.56h-5.12V99.8h10.23V83.32c0-0.51,0.15-0.88,0.46-1.1c0.31-0.22,0.82-0.33,1.54-0.33h2.61V99.8h10.23V83.32
			c0-0.51,0.15-0.88,0.46-1.1c0.31-0.22,0.82-0.33,1.54-0.33h2.61V99.8h10.23V79.33C262.27,77.49,261.59,76.05,260.25,75.01z"/>
	</g>
</g>
</svg>
