<svg xmlns="http://www.w3.org/2000/svg" viewBox="0 0 88.86 15.6"><defs><style>.cls-1{fill:#12100b;}</style></defs><title>logo</title><g id="Capa_2" data-name="Capa 2"><g id="Kit_de_logotipos_elegantes" data-name="Kit de logotipos elegantes"><path class="cls-1" d="M0,14.8V11.92H2.2V14.8Z"/><path class="cls-1" d="M7,15.6V0h3.74V2.14H9.46V13.46h1.26V15.6Z"/><path class="cls-1" d="M26.72,14.8V5.4l-3.66,7h-1.5l-3.66-7v9.4H15.14V.6h3l4.2,8.08L26.54.6h2.94V14.8Z"/><path class="cls-1" d="M38.9,15a5.76,5.76,0,0,1-2.28-.43,5.33,5.33,0,0,1-1.74-1.17,5.19,5.19,0,0,1-1.11-1.72,5.51,5.51,0,0,1-.39-2.06,5.9,5.9,0,0,1,.38-2.11,5.1,5.1,0,0,1,1.1-1.74,5.17,5.17,0,0,1,1.75-1.19,5.91,5.91,0,0,1,2.31-.44,5.74,5.74,0,0,1,2.29.44,5.27,5.27,0,0,1,1.72,1.18A5.12,5.12,0,0,1,44,7.48a5.63,5.63,0,0,1,.37,2c0,.17,0,.34,0,.5a2.07,2.07,0,0,1,0,.4h-8.1a3.13,3.13,0,0,0,.3,1.1,2.82,2.82,0,0,0,.62.82,2.61,2.61,0,0,0,.86.52A2.81,2.81,0,0,0,39,13a3.09,3.09,0,0,0,1.51-.39,2.05,2.05,0,0,0,1-1l2.3.64a4.66,4.66,0,0,1-1.85,2A5.78,5.78,0,0,1,38.9,15Zm2.72-6.32a2.8,2.8,0,0,0-.87-1.89,2.67,2.67,0,0,0-1.87-.71,2.59,2.59,0,0,0-1,.19A2.67,2.67,0,0,0,37,6.8a2.73,2.73,0,0,0-.59.82,3,3,0,0,0-.27,1.06Z"/><path class="cls-1" d="M57.76,14.8H55.08V8.92a3.09,3.09,0,0,0-.44-1.84,1.43,1.43,0,0,0-1.22-.58,2.21,2.21,0,0,0-.82.16,3.28,3.28,0,0,0-.79.45,3.38,3.38,0,0,0-.67.69,2.69,2.69,0,0,0-.44.88V14.8H48V4.32h2.42V6.26A4,4,0,0,1,52.12,4.7a5.42,5.42,0,0,1,2.48-.56,3.16,3.16,0,0,1,1.6.36,2.62,2.62,0,0,1,1,.94,4,4,0,0,1,.47,1.32,8.28,8.28,0,0,1,.13,1.5Z"/><path class="cls-1" d="M68.28,14.26a12,12,0,0,1-1.32.48,5.56,5.56,0,0,1-1.64.24,4,4,0,0,1-1-.14,2.19,2.19,0,0,1-1.45-1.25,2.84,2.84,0,0,1-.22-1.19v-6H61.22V4.32H62.6V.92h2.68v3.4h2.2V6.38h-2.2V11.5a1,1,0,0,0,.29.79,1.12,1.12,0,0,0,.71.23,2.57,2.57,0,0,0,.82-.14c.27-.09.48-.17.64-.24Z"/><path class="cls-1" d="M76.28,15A5.76,5.76,0,0,1,74,14.57a5.33,5.33,0,0,1-1.74-1.17,5.19,5.19,0,0,1-1.11-1.72,5.51,5.51,0,0,1-.39-2.06,5.9,5.9,0,0,1,.38-2.11,5.1,5.1,0,0,1,1.1-1.74A5.17,5.17,0,0,1,74,4.58a5.91,5.91,0,0,1,2.31-.44,5.74,5.74,0,0,1,2.29.44,5.27,5.27,0,0,1,1.72,1.18,5.12,5.12,0,0,1,1.08,1.72,5.63,5.63,0,0,1,.37,2c0,.17,0,.34,0,.5a2.07,2.07,0,0,1,0,.4H73.6a3.13,3.13,0,0,0,.3,1.1,2.82,2.82,0,0,0,.62.82,2.61,2.61,0,0,0,.86.52,2.81,2.81,0,0,0,1,.18,3.09,3.09,0,0,0,1.51-.39,2.05,2.05,0,0,0,1-1l2.3.64a4.66,4.66,0,0,1-1.85,2A5.78,5.78,0,0,1,76.28,15ZM79,8.68a2.8,2.8,0,0,0-.87-1.89,2.67,2.67,0,0,0-1.87-.71,2.59,2.59,0,0,0-1,.19,2.67,2.67,0,0,0-.83.53,2.73,2.73,0,0,0-.59.82,3,3,0,0,0-.27,1.06Z"/><path class="cls-1" d="M85.1,15.6V13.46h1.28V2.14H85.1V0h3.76V15.6Z"/></g></g></svg>