<?xml version="1.0" encoding="utf-8"?>
<!-- Generator: Adobe Illustrator 24.1.0, SVG Export Plug-In . SVG Version: 6.00 Build 0)  -->
<svg version="1.1" id="Layer_1" xmlns="http://www.w3.org/2000/svg" xmlns:xlink="http://www.w3.org/1999/xlink" x="0px" y="0px"
	 viewBox="0 0 160.09 160.09" style="enable-background:new 0 0 160.09 160.09;" xml:space="preserve">
<style type="text/css">
	.st0{fill:#055474;}
	.st1{fill:#0988A6;}
	.st2{fill:#58C7DD;}
	.st3{fill:#162B52;}
	.st4{fill:#EE2B5B;}
	.st5{fill:#FFFFFF;}
</style>
<g>
	<g>
		<path class="st5" d="M130.67,100.27c0.82,0,1.63-0.05,2.43-0.13c2.2-6.29,3.41-13.05,3.41-20.09c0-0.9-0.03-1.79-0.07-2.68
			c-5.87,2.32-12.47,3.41-17.59,3.93C119.17,89.7,118.11,100.27,130.67,100.27z"/>
		<path class="st5" d="M134.26,64.51c0-1.07-0.36-2.02-1.07-2.86c-0.71-0.84-1.88-1.26-3.51-1.26c-3.2,0-5.71,1.27-7.51,3.81
			c-1.8,2.54-3.01,5.69-3.62,9.45c5.39-0.51,9.36-1.51,11.9-3.01C132.99,69.15,134.26,67.11,134.26,64.51z"/>
		<path class="st5" d="M107.45,104.91c-4.28-4.47-6.42-10.64-6.42-18.51c0-1.97,0.16-3.92,0.39-5.87c-2.13-0.21-4.25-0.47-6.37-0.8
			c-0.74,20.96-9.99,33.35-27.59,33.35c-9.05,0-13.83-3.3-16.77-8.08c-5.14,6-11.26,8.08-18.97,8.08c-2.76,0-5.28-0.28-7.55-0.82
			c10.74,17.16,29.81,28.58,51.55,28.58c22.04,0,41.34-11.73,52-29.29c-0.56,0.03-1.1,0.07-1.72,0.07
			C117.91,111.62,111.72,109.38,107.45,104.91z"/>
		<path class="st5" d="M30.14,93.83c0,5.51,0.73,8.32,4.77,8.32c4.16,0,6.61-2.94,6.61-7.71V48.83h20.44v39.16
			c0,5.87,0.12,14.16,4.77,14.16c6.49,0,8.08-10.03,8.08-20.07c0-8.93-1.84-24.81-3.92-33.25h20.07c1.93,6.72,3.52,15.47,4,23.44
			c0.43,0.17,0.82,0.3,0,0.06v0c0.45,0.14,0.89,0.28,1.35,0.4c1.25,0.33,2.52,0.59,3.79,0.81c0.68,0.12,1.35,0.22,2.03,0.32
			c0.18,0.03,0.35,0.05,0.53,0.07c0.48-1.87,1.04-3.74,1.74-5.59c2.12-5.58,8.91-19.11,22.78-20.65
			c-10.76-17.08-29.78-28.44-51.46-28.44c-22.16,0-41.54,11.86-52.16,29.57h6.58V93.83z"/>
	</g>
</g>
</svg>
